<?xml version="1.0" encoding="UTF-8"?>
<svg version="1.1" viewBox="0 0 1440 1440" width="360" height="360" xmlns="http://www.w3.org/2000/svg">
<path transform="translate(670,171)" d="m0 0h27l17 4 12 6 10 8 12 12 10 15 12 23 10 19 8 22 8 17 8 20 10 35 7 12 15 23 8 19 4 11 12 17 1 5 3-1 6-12 10-14 11-12 9-6 18-10 27-12-3-15 5-6 14-6 18-5 16-3 9-1h10l8 2 3 5 2 10 2 1 14 2 12 3 8-1 9 9 7 1 6 1 5 4 7 10 13 14 9 15 8 18 14 43 6 20 22 88 9 28 2 16 4 8 14 65 4 23 2 21-2 6 10 22 1 6-2 7-3 4 1 5 1 7-3 6-3 3 1 5 2 5 2 1 9 1 3 3 1 4v12l-2 4-10 5-13 3h-3l1 18 4 134 5 184 2 70v25l-3 3-3 1h-12l-3-5-1-4-1-37-3-73-5-149-5-153-2-8-5-1h-15l-3 6-8 7-7 4-2 91v29l2 37 6 59 2 26 2 39 3 12v7l-4 6-6 5-8 4-1 12v14l2 3 1 17 3 14 8 17v7l-7 8-11 3-20 2h-18l-21-2-6-3-4-4-1-3v-9l4-12 5-11 2-8 1-14 2-5-1-21-10-3-6-5-5-30-4-33-7-63-6-37-4-18-1 4-1 17-1 36-3 41-1 19v56l-6 9-4 3-11 3-3 19 1 5 2 3 1 15 5 12 3 9v14l-4 8-5 4-17 3-8 1h-20l-18-2-12-4-10 2-11 8-9 8-17 10-16 3-13-1-8-1h-15l-6 8-7 3-40 1-52 8-28 4h-8l-10-3-6-5-5-10-1-9-19 1-23-2-21-3-9-4-9-7-25 3-12 2-35 12-6 1h-11l-13-2h-14l-5 1h-33l-15-4-9-6-6-8-4-10v-6h-14l-21-2-18-6-8-6-4-8-3-12-8-5-4-3v-14l3-60 2-50 5-81 9-125 3-40v-25l-5-14-4-16h-15l-7 9-8 2-1 460-1 4-5 2h-7l-5-3-1-2-1-25-1-96-1-332h-15l-6-4-4-2-4 1-2 4-3 15-4 6-5 3h-9l-6-5-2-6 1-15 3-10 6-8 7-6 7-3h3l3-9 7-9 10-5v-7l4-6 9-4 3-9-1-6-3-3v-7l8-35 12-44 12-52 19-70 8-32 5-13 5-10v-7l-1-7 3-6 7-7 7-4 7-3 3-7v-13l-2-12v-24l4-21 8-24 3-20 3-23 5-19 7-14 9-12 8-9 14-10 10-5 13-4 10-2h31l15 3 13 4 15 8 16 13 8 10 9 16 6 14 5 19 2 14-1 10-1 3v8l8 36 3 15 1 2 4-15 4-20 2-20 2-16v-9l-2-11-1-33v-14l4-23 5-14 8-16 7-9 5-5 8-6 14-7 16-5zm480 654v2h3v-2z" fill="#CFA99E"/>
<path transform="translate(453,221)" d="m0 0h31l15 3 13 4 15 8 16 13 8 10 9 16 6 14 5 19 2 14-1 10-1 3v8l8 36 3 15v12l-1 7-2 6-4 24-7 12-5 8-3 7-4 1-2 4-4 3h-2l-2 4-1 3h-2v8l2 5h2l6 21 2 6 1 22 1 7 2 37 1 7v18l-5-1-9-4-5-2 1 77 2 41 4 35 5 26 3 12 2 5 7 32 2 10 2 17 1 1 4 24 1 7h2l-1-28-2-9 1-4 6 12 4 10 4 8 4 14 3 9 2 8 2 17 1 4 2 32 4 20 3 6 5 6 9 6 12 6 5 9 4 11 6 11 3 3 3 1v2l6 1h33l21-1h15l3 4 5 12 5 6 2 1h10l12-3 14-7 18-11 14-8 14-6 11-7 5-4 5-8 10-25 2-6 6-14 5-18 3-13 4-8 2-6 6-15 1-4v-27l-2-15-1-2v-45l2-32h2l2 10 3 30 2 10 2 15 5 31 4 35 5 31 2 11 1 1 6 37 1 5v11h2l12 66 4 26 3 17 6 36 10 55 2 2 9 36-1 9-1 2h-2v2l-5 3-12 3h-9v2l-17 4h-9l-9 3-10 8-11 9-14 8-16 3-13-1-8-1h-15l-6 8-7 3-40 1-52 8-28 4h-8l-10-3-6-5-5-10-1-9-19 1-23-2-21-3-9-4-9-7-25 3-12 2-35 12-6 1h-11l-13-2h-14l-5 1h-33l-15-4-9-6-6-8-4-10v-6h-14l-21-2-18-6-8-6-4-8-3-12-8-5-4-3v-14l3-60 2-50 5-81 9-125 3-40v-25l-5-14-4-16h-15l-7 9-8 2-1 460-1 4-5 2h-7l-5-3-1-2-1-25-1-96-1-332h-15l-6-4-4-2-4 1-2 4-3 15-4 6-5 3h-9l-6-5-2-6 1-15 3-10 6-8 7-6 7-3h3l3-9 7-9 10-5v-7l4-6 9-4 3-9-1-6-3-3v-7l8-35 12-44 12-52 19-70 8-32 5-13 5-10v-7l-1-7 3-6 7-7 7-4 7-3 3-7v-13l-2-12v-24l4-21 8-24 3-20 3-23 5-19 7-14 9-12 8-9 14-10 10-5 13-4z" fill="#533F3C"/>
<path transform="translate(1e3 336)" d="m0 0h10l8 2 3 5 2 10 2 1 14 2 12 3 8-1 9 9 7 1 6 1 5 4 7 10 13 14 9 15 8 18 14 43 6 20 22 88 9 28 2 16 4 8 14 65 4 23 2 21-2 6 10 22 1 6-2 7-3 4 1 5 1 7-3 6-3 3 1 5 2 5 2 1 9 1 3 3 1 4v12l-2 4-10 5-13 3h-3l1 18 4 134 5 184 2 70v25l-3 3-3 1h-12l-3-5-1-4-1-37-3-73-5-149-5-153-2-8-5-1h-15l-3 6-8 7-7 4-2 91v29l2 37 6 59 2 26 2 39 3 12v7l-4 6-6 5-8 4-1 12v14l2 3 1 17 3 14 8 17v7l-7 8-11 3-20 2h-18l-21-2-6-3-4-4-1-3v-9l4-12 5-11 2-8 1-14 2-5-1-21-10-3-6-5-5-30-4-33-7-63-6-37-4-18-1 4-1 17-1 36-3 41-1 19v56l-6 9-4 3-11 3-3 19 1 5 2 3 1 15 5 12 3 9v14l-4 8-5 4-17 3-8 1h-20l-18-2-10-3 4-2 12-3h5v-2l14-2 12-4v-2h2l1-11-6-23-3-13-2-2-5-28-7-37-6-40-3-17-10-56-3-17v-5h-2l-2-16-6-37-1-1-6-36-6-45-3-21-2-22v-20l4-16v-88l3-27 1-15v-53l-2-31-2-7 5-2v-2l13-7 7-3 11-7 14-11 15-11 13-7 9-6h2l1-3 8-7 4-5 2-4 8-7 4-6 15-9 7-11 4-20 4-3 8-3 4-3 1-6-3-13-2-1-4-8-4-6-2-2-4-6-5-8-4-1-5 1-8 5-9-1-14-4h-11l-17 8-6 5h-2l-2 4-11 6-12 7-8 4-6 5-5 7-1 3-5 4-13 3-9 5-5 1v2h-2v-2h-3v-2l-4-1-7-6-3-4v-3l-2-1 2-1 6-12 10-14 11-12 9-6 18-10 27-12-3-15 5-6 14-6 18-5 16-3zm146 489v2h3v-2z" fill="#E9D8CE"/>
<path transform="translate(888,789)" d="m0 0h2l2 10 3 30 2 10 2 15 5 31 4 35 5 31 2 11 1 1 6 37 1 5v11h2l12 66 4 26 3 17 6 36 10 55 2 2 9 36-1 9-1 2h-2v2l-5 3-12 3h-9v2l-17 4h-9l-9 3-10 8-11 9-14 8-16 3-13-1-8-1h-15l-6 8-7 3-40 1-52 8-28 4h-8l-10-3-6-5-5-10-1-9-19 1-23-2-21-3-9-4-8-7-2-5-12-7v-2h-2l-1-6v-16l2-25 2-40 2-38 5-106 2-59 1-31 1-15 1-4-2-1 1-1 2-21v-12l-1-5h2l-1-28-2-9 1-4 6 12 4 10 4 8 4 14 3 9 2 8 2 17 1 4 2 32 4 20 3 6 5 6 9 6 12 6 5 9 4 11 6 11 3 3 3 1v2l6 1h33l21-1h15l3 4 5 12 5 6 2 1h10l12-3 14-7 18-11 14-8 14-6 11-7 5-4 5-8 10-25 2-6 6-14 5-18 3-13 4-8 2-6 6-15 1-4v-27l-2-15-1-2v-45z" fill="#533F3C"/>
<path transform="translate(330,839)" d="m0 0 4 2 9 9 6 5v2l4 2 8 11 3 10 3 9 5 13 1 4h2l3 7 7 8 11 9 11 8 6 4 3 5 8 5 4 6 14 8 13 4v2l8 1 5 1h10l14-3 10-5 17-5 9-2 11-3 15-6 12-7 6-5 1-2h2l-2 52-3 81-4 86-3 52-2 37-1 10v22h2v2l5 2 9 6-1 4-25 3-12 2-35 12-6 1h-11l-13-2h-14l-5 1h-33l-15-4-9-6-6-8-4-10v-6h-14l-21-2-18-6-8-6-4-8-3-12-8-5-4-3v-14l3-60 2-50 5-81 9-125 3-40z" fill="#AA8A88"/>
<path transform="translate(1124,875)" d="m0 0h5v51l-1 38v29l2 37 6 59 2 26 2 39 3 12v7l-4 6-6 5-8 4-1 12v14l2 3 1 17 3 14 8 17v7l-7 8-11 3-20 2h-18l-21-2-6-3-4-4-1-3v-9l4-12 5-11 2-8 1-14 2-5-1-21-10-3-6-5-5-30-4-33-7-63-6-37-4-18-1 4-1 17-1 36-3 41-1 19v56l-6 9-4 3-11 3-3 19 1 5 2 3 1 15 5 12 3 9v14l-4 8-5 4-17 3-8 1h-20l-18-2-10-3 4-2 12-3h5v-2l14-2 12-4v-2h2l1-11-6-23-3-13-2-2-5-28-7-37-6-40-3-17-10-56-3-17v-5h-2l-2-16-6-37-1-1-6-36-4-30v-10l6 2 24 4 25 4h44l36-3 24-3 33-6 20-6z" fill="#AA8A88"/>
<path transform="translate(972,99)" d="m0 0 21 4 9 1 13 4 9 6 8 8 8 7 7 7 5 6-1 2-9-9-8-7-9-9-14-9-13-4 14 8 8 5 14 12 11 11 12 18 5 12-1 3-3 2 3 10 6 16 2 14 1 17-3 20-11 23-10 15-11 14-5 6-11 9-12 7-16 4-13 2h-24l-16-4-25-11-14-8-12-10-8-11-7-14-3-10-3-7-1-13 1-7v-9l-6-10-5-7-4-9-2-14v-13l4-16 5-11 6-8 7-7 14-10 13-8 10-6 13-5h17l7 2 6-1 10-5zm8 4 1 2 1-2zm-4 0-7 1v1h9z" fill="#EAD9CF"/>
<path transform="translate(904,886)" d="m0 0 6 2 24 4 5 1v2l11 1 5 1h56l28-2 7-1h11l-1 3-11 2-7 3h-8l-1 1-11 1-8 2-2-1 1 3h-2l2 5 5 26 9 51 1 19-2-2-1-3-1 4-1 17-1 36-3 41-1 19v56l-6 9-4 3-11 3-3 19 1 5 2 3 1 15 5 12 3 9v14l-4 8-5 4-17 3-8 1h-20l-18-2-10-3 4-2 12-3h5v-2l14-2 12-4v-2h2l1-11-6-23-3-13-2-2-5-28-7-37-6-40-3-17-10-56-3-17v-5h-2l-2-16-6-37-1-1-6-36-4-30z" fill="#AA8A88"/>
<path transform="translate(990,396)" d="m0 0 12 1 7 3 7 10 8 12 4 7 7 10 6 8 1 1-1 10-2 13-4 8-8 7-9 6-5 5-6 9-2 1-4 7-8 8-9 7-16 9-10 7-13 10-15 11-7 4-7 3-8 4h-2v2l-6 1-1 3-7 3-5 3h-4l-1-32-3-26-1-19v-21l1-16 3-10 4-6 11-7 13-4 6-4 7-9 7-6 16-9h2v-2l12-7 7-6 16-8z" fill="#533F3C"/>
<path transform="translate(271,743)" d="m0 0 6 1 6 4 5 5 8 11 8 13 1 3 2 1 7 15v4l3 1v3l3 1-11 1-5 1-6 8-8 2-1 460-1 4-5 2h-7l-5-3-1-2-1-25-1-96-1-332h-15l-6-4-4-2-4 1-2 4-3 15-4 6-5 3h-9l-6-5-2-6 1-15 3-10 6-8 7-6 7-3h3l3-9 7-9 10-5v-7l4-6 9-4 3-9z" fill="#765B58"/>
<path transform="translate(1e3 336)" d="m0 0h10l8 2 3 5 2 10 2 1 14 2 12 3 8-1 9 9 7 1 6 1 5 4 5 8 2 8v7l-6 10-6 8-8 6-10 6-8 3-2-4-2-1-4-8-4-6-2-2-4-6-5-8-4-1-5 1-8 5-9-1-14-4h-11l-17 8-6 5h-2l-2 4-11 6-12 7-8 4-6 5-5 7-1 3-5 4-13 3-9 5-5 1v2h-2v-2h-3v-2l-4-1-7-6-3-4v-3l-2-1 2-1 6-12 10-14 11-12 9-6 18-10 27-12-3-15 5-6 14-6 18-5 16-3z" fill="#EAD9CF"/>
<path transform="translate(1150,828)" d="m0 0h3l3 14 5 7 10 5h13l10-1 1 16 4 134 5 184 2 70v25l-3 3-3 1h-12l-3-5-1-4-1-37-3-73-5-149-5-153-2-8-18-2z" fill="#55403D"/>
<path transform="translate(277,818)" d="m0 0h2l1 2v21l1 6v14l1 25v62l1 34v12l-1 4 1 5v142l-1 24 2 13-1 38 1 2v47l-2 6-2 7h-7l-3-4-1-25-1-96v-333z" fill="#55413E"/>
<path transform="translate(573,936)" d="m0 0h2l-2 52-3 81-4 86-3 52-2 37-1 10v22h2v2l5 2 9 6-1 4-25 3-16 1 1-8 5-13 2-12 2-16 3-14 3-20 2-24 1-37v-14l1-7v-16l1-6-1-10 1-6v-33l-1-2 1-3v-21l-1-4v-28l-1-11v-11l1-11-1-4-4-1 3-9-2-1 13-7 9-7z" fill="#8A6561"/>
<path transform="translate(878,475)" d="m0 0h1v37l1 19 3 26v32l7-3 5-3 4-1 1-2 2 1 2 7 2 31v53l-2 25-2 21v84l-4 16v20l1 16-2-4-2-17-2-15-3-24v-5h-2v-39l-1-16v-8l-1-6 1-3h-2l-2-27-4-28-1-2-1-15-2-10v-27l4-12 1-10v-31l-3-26-1-7v-30z" fill="#C79285"/>
<path transform="translate(362,431)" d="m0 0 9 1 8 4 2 3 3 1 10 10 6 3 3-1 1-2 3-1h10v3h3v2l4 2 1 1v7l-4 12-5 12-4 11-2 7-8 8-2 1-9-1-7-4-2-6v-6l-18-4v-2l-7-1v-2l-5-1-5-3v-2l-4-2-5-5v-2h-2l-2-10 1-6 3-5 9-8 10-4z" fill="#F1BFAA"/>
<path transform="translate(1190,853)" d="m0 0h4l1 16 4 134 5 184 2 70v25l-3 3-6 1 1-14-1-7 1-3-2-1 1-3-1-8-1-4v-16l-1-6-3-74-1-42-1-20-1-14-1-37-1-39v-48l1-4v-36l1-12-1-16 1-13v-8l2-6-4 1h-11v-1z" fill="#755C58"/>
<path transform="translate(560,607)" d="m0 0h1l3 61 1 17 1 39v37l-1 8v30l2 17 2 7 3 16 6 18-1 3-2-3 2 11v28h-2l-3-14-3-17-2-7-2-16-6-29-4-13-4-16-4-22-4-35-2-41v-77l5 1 9 4 5 2z" fill="#AF817B"/>
<path transform="translate(904,886)" d="m0 0 6 2 24 4 5 1v2l11 1 5 1h56l28-2 7-1h11l-1 3-11 2-7 3h-8l-1 1-11 1-8 2-2-1 1 3h-2l2 5 5 26 9 51 1 19-2-2-1-3-1 4-1 17-1 36-3 41-2 15-1 2-3 1h-7l-2-6 1-10 3-15 1-11 3-21v-8l-1-13v-8l-2-7-1-18-3-38v-28l2-14-1-11-1-5-4 1-7-1-31-1-9 1-6 1-9 1-10 2-12 2-3 1 1 12 3 21v8l-2-4-6-39-2-16z" fill="#97706B"/>
<path transform="translate(1064,1215)" d="m0 0 17 2 23 1 4 3-3 9-2 4h2l1 12 3 1 2 4 2 1v3l3 1 2 3 8 4 12 2v7l-7 8-11 3-20 2h-18l-21-2-6-3-4-4-1-3v-9l4-12 5-11 2-8 1-14z" fill="#AA8A88"/>
<path transform="translate(1148,776)" d="m0 0h2l4 10 4 14 2 4 11-2 24-8 10-5 3 1 2 4-1 7-3 5-2 2 1 5 2 5 2 1 9 1 3 3 1 4v12l-2 4-10 5-13 3h-3v2l-10 2h-13l-6-3-6-4-4-6-2-8v-6h-3v27h-2zm2 49v2h3v-2z" fill="#AC8B89"/>
<path transform="translate(670,171)" d="m0 0h27l17 4 12 6 10 8 12 12 10 15 12 23 10 19 3 10-3-1v-2l-4-2-7-8-8-6-7-1-4 1-6-10-5-4h-5l-5 3-5-1-2-1 1-6-10-3-3-3 3-9 2-4h2l-2-4-5 5-7-3v-2h3l1-9-9-5v-1h5v-2l6-3 2-5-17-1-10 1-3-1h-19l-16 4-10 2-5-2 5-4 15-6z" fill="#DDB5A5"/>
<path transform="translate(1061,358)" d="m0 0 5 2 4 6 5 2h7l7 4 6 9 2 8v7l-6 10-6 8-8 6-10 6-8 3-2-4-2-1-4-8-4-6-2-2-4-6-5-8-4-1h-8l-3 3-10 1 1-2 9-5 1-1 9-2 5-2 6-7 7-10 4-6 5-3z" fill="#F4D3C1"/>
<path transform="translate(1124,875)" d="m0 0h5v51l-1 38h-1l-1-20-4 11-2 10-2 2-3 23-5 15-3 5h-3v-7l-1-4-1-16-2-14-1-17-1-30 2-19 2-6 4-7 4-4 1-3h-7l3-2z" fill="#C19E97"/>
<path transform="translate(990,396)" d="m0 0 12 1 7 3 7 10 8 12 4 7 7 10-1 2-4-4-2-3v-3h-2l-3-5v-3h-2v-3h-2l-5-8-5-4-6-1-2 4-5 4-6 2v2l-18 12-11 4-7 3-12 8-6 5-8 6h-2l-2 4-10 10-7 3-3-3 1-5-3-2-4 1-1-1-2 2-6 3h-2l-1 4h-4l-2 16h-1v-14l3-10 4-6 11-7 13-4 6-4 7-9 7-6 16-9h2v-2l12-7 7-6 16-8z" fill="#674D4B"/>
<path transform="translate(1128,1017)" d="m0 0h1l8 84 1 14v20h-2v2h-2l-2 5-4 7-6-1-4-5-4-12-4-18-1-28v-23l4-23 3-11 4-6 2-1h6z" fill="#C19E97"/>
<path transform="translate(254,772)" d="m0 0 4 5 7 13 5 11 2-1 8 8 1 7-5 3-5 2-4 5h-15l-6-4-4-2-4 1-2 4-3 15-4 6-5 3h-9l-6-5-2-6 1-15 3-10 6-8 7-6 7-3h3l3-9 7-9z" fill="#F1BFAA"/>
<path transform="translate(1137,1170)" d="m0 0 4 2v5l-8 7-8 4-1 12v14l2 3 1 17 3 14 7 14v3l-11-1-9-5-4-4v-3l-3-1-2-4-2-1-2-10 1-2h-2l3-12v-2l-2-1-23-1-11-1-6-2v-22l38-4 13-1 8-2 1-3 5-2 2-6z" fill="#D1AB9F"/>
<path transform="translate(271,743)" d="m0 0 6 1 6 4 5 5 8 11 8 13 1 3 2 1 7 15v4l3 1v3l3 1-11 1-5 1-6 8-10 2-5-2-4-7-5-6h-3l-3-2-4-10-7-13-2-3-1-9 4-6 9-4 3-9z" fill="#533F3C"/>
<path transform="translate(538,690)" d="m0 0h2l1 2 1 20 5 39 2 15 3 18 4 16 2 5 7 32 2 10 2 17 1 1 4 24 3 12v15l-2 18-4 6-10 7-3-1 3-12v-29l-3-23-1-7v-11l-1-17-2-22-2-7-4-23-3-9-3-21-2-12-1-13v-9l-2-12-1-19z" fill="#392520"/>
<path transform="translate(878,475)" d="m0 0h1v37l1 19 3 26v32l7-3 5-3 2 1-2 3-2 16-1 32-2 9v10l-1 11 2 9v10l1 6-1 3v10l2 12 4 6v24l-1 14 1 3h-2v11l-2 12-1 14h-1l-1-10h-2v-39l-1-16v-8l-1-6 1-3h-2l-2-27-4-28-1-2-1-15-2-10v-27l4-12 1-10v-31l-3-26-1-7v-30z" fill="#AD807B"/>
<path transform="translate(541,609)" d="m0 0 5 1 2 8 1 14v50l2 7v4h-2l3 5 1 14v6l1 1-1 12 2 7-2 5 2 9 3 3 2 18 1 8h-2l4 18 2 19h3l4 21 6 18-1 3-2-3 2 11v28h-2l-3-14-3-17-2-7-2-16-6-29-4-13-4-16-4-22-4-35-2-41z" fill="#C59185"/>
<path transform="translate(561,946)" d="m0 0h3l-1 4h-2v3l-2 2 1 5 3 6 1 16h-2l1 6-1 4-3 2v7l-1 9v7l1 9v96l-1 3v46l-2 31-1 17-2 23-1 23 1 6 2 6v4h2l2 5 3 5-12 2-16 1 1-8 5-13 2-12 2-16 3-14 3-20 2-24 1-37v-14l1-7v-16l1-6-1-10 1-6v-33l-1-2 1-3v-21l-1-4v-28l-1-11v-11l1-11-1-4-4-1 3-9-2-1z" fill="#98716C"/>
<path transform="translate(959,1211)" d="m0 0 2 4 17 2 1 1 1 12 3 6 1 7h2l5 8 7 6 4 2v10l-4 8-5 4-17 3-8 1h-20l-18-2-10-3 4-2 12-3h5v-2l14-2 12-4v-2h2l1-11-6-23-3-13-2-2z" fill="#AA8A87"/>
<path transform="translate(1e3 336)" d="m0 0h10l8 2 3 5 1 4v7l-12 2-20 3-30 8-11 4h-6l-3-4-2-10 5-6 14-6 18-5 16-3z" fill="#AD8D8A"/>
<path transform="translate(1028,392)" d="m0 0h6l5 5 4 6 7 10 5 8v3l3 1 3 13-1 6-6 5-9 3-1 1-4 20-7 11-14 9-8 8 1-4 4-5 8-5 8-6 4-5 3-10 2-12v-6l-6-7-7-11-4-5-6-11-9-12v-2l-3-1v-2l13 1z" fill="#CFA99E"/>
<path transform="translate(330,839)" d="m0 0 4 2 9 9 6 5v2l4 2 8 11 3 10 3 9 5 13 1 4h2l3 7 7 8 11 9 11 8 6 4 3 5 8 5 2 4-5-2-7-4-5-1v-2l-3 1-12-6-10-7-7-9v-2h-3l-6-7-3-5-1-3-4-4-4-8-6-16-2-2v-3l-4-2v-2l-3-1-1-3-3-3-2-5-4-1-1-1z" fill="#8A6561"/>
<path transform="translate(422,455)" d="m0 0 3 2v7l-4 12-5 12-4 11-2 7-8 8-2 1-9-1-7-4-2-6v-6l-18-4v-2l-7-1v-2l-5-1-5-3v-2l-4-2-5-5v-2l-2-1 2-1 5 4 4 5 8 5 5 2v2l12 1 3 1h7l3-5h2l2-6 4-5 6-3h3l2-5 8-5 11-2z" fill="#CFA89E"/>
<path transform="translate(1090,381)" d="m0 0h5l2 8v7l-6 10-6 8-8 6-10 6-8 3-2-4-2-1-4-8-4-6-2-2-4-6-5-8-5-2 4-2 7-1 12 7h8l5 2 9-3 5-7z" fill="#F3C1AB"/>
<path transform="translate(1196,931)" d="m0 0h1l7 256 1 30v25h-2l-1-10-1-6 1-3-1-1-1-16-2-18v-16l-1-6v-33l-2-42-1-36v-12l1-9-1-5v-67l1-10z" fill="#8F6B67"/>
<path transform="translate(1203,811)" d="m0 0 3 4 1 3 2 2-2 15-2 5h-2l-2 4-4 5-8 1h-14l-10-3-1-3-4-2v-2h-2v-6l7-6 5-1 4-4 12-5 12-4 5-1z" fill="#F2C0AA"/>
<path transform="translate(1189,857)" d="m0 0h1l1 9v18l1 11-1 6v82l-1 8 1 5v53l1 31 1 20v10l1 6v14l1 4v28l1 26v17l1 9 3 44 1 27-4 1 1-14-1-7 1-3-2-1 1-3-1-8-1-4v-16l-1-6-3-74-1-42-1-20-1-14-1-37-1-39v-48l1-4v-36l1-12-1-16 1-13v-8z" fill="#674D4B"/>
<path transform="translate(979,1192)" d="m0 0h13l-1 14-1 8 3 5 1 15 5 12 3 9-1 4-6-3-5-5-4-6v-2h-2l-3-8-2-5-1-12-17-2-2-5-2-14 2-2z" fill="#D1ABA0"/>
<path transform="translate(573,936)" d="m0 0h2l-2 52-3 81-4 86-3 52-2 37-1 10v22h2v2l5 2 5 3-3 1-9-5-4-5-1-7v-10l2-22 1-32 3-38 2-55 2-25 1-6 2-60v-17l1-22v-21l-1-5v-10l4-4z" fill="#735A57"/>
<path transform="translate(279,843)" d="m0 0 2 4v14l1 25v62l1 34v12l-1 4 1 5v142l-1 24 2 13-1 38 1 2v47l-1 5-3-3-1-15v-30l-1-3 1-5z" fill="#674D4B"/>
<path transform="translate(228,796)" d="m0 0 5 1 3 8 2 7 2 3-1 4-3 5-3 15-4 6-5 3h-9l-6-5-2-6 1-15 3-10 6-8 7-6z" fill="#55403E"/>
<path transform="translate(577,380)" d="m0 0 2 3 3 11v12l-1 7-2 6-4 24-7 12-5 8-3 7-4 1-2 4-4 3h-2l-2 4-4 2v2h-3l2-6 7-11 3-5 1-7 3-2v-6l2-4h2v-3h2l1-5h2v-15l2-9 1-2 2-12 3-8 4-8z" fill="#3A2621"/>
<path transform="translate(351,443)" d="m0 0 9 2h5l3-2h11l6 6 3 1 4 6-2 6-8 11-9 4-5-2-15-8-7-8-3-8v-3z" fill="#F4D2C0"/>
<path transform="translate(1123,1188)" d="m0 0h1v12l-1 13-29 4h-11l-8-1-3-4 1-4 11-8 7-6 13-2h7v-2z" fill="#F2C1AB"/>
<path transform="translate(271,743)" d="m0 0 6 1 6 4 5 5 8 11 8 13 1 3 2 1 7 15v4l3 1v3l3 1-11 1-4-1-5-9v-2h-2l-4-7-11-14-8-10-6-5-3-2 2-2z" fill="#AA8987"/>
<path transform="translate(630,465)" d="m0 0 2 2 1 7v11l2 10 2 12 1 25 3 12 3 30 3 25 1 11 1 4 4 23 6 33-3-1-3-10-1-7-4-20-2-12-1-1v-10l-4-19-2-19-8-32-1-13-2-18 1-7v-31z" fill="#C89285"/>
<path transform="translate(1201,807)" d="m0 0 3 1-1 5-17 6-13 6h-2l-1 3-5 1-6 5-1 6h2l5 6 10 3h14l7-1 3-1 2-4 2-3h2l1-5 2-15h10l3 3 1 4v12l-2 4-10 5-13 3h-3v2l-4 1h-12l-10-3-8-5-4-6-1-4v-9l6-4 11-3 12-5 15-6z" fill="#D2ACA0"/>
<path transform="translate(516,597)" d="m0 0 5 2 8 3v2l6 1 4 2 1 3v54l-1 9-5-2-1-1v-16l-2-11-4-9-3-13-5-13-4-7z" fill="#37231E"/>
<path transform="translate(1009,933)" d="m0 0 3 3 4 23 5 34v9l-1 6-1 17-1 36-2 18-2 3-1-9v-45l-1-9-1-5 1-7-1-7-1-8 1-7v-18l-3-27z" fill="#8C6763"/>
<path transform="translate(476,460)" d="m0 0 13 3 12 5 16 8 1 3h2l1 4-3 9-1 1h-6l-5-3-14-1-2-7-4-2-7-8-6-7 1-4z" fill="#674D4B"/>
<path transform="translate(442,451)" d="m0 0 8 1 4 1v2l4 2 4 5 4 3 3 9v5l-1 1-7-1-4-4-10-4-14-1-5 1-4-1-1 4-2 2 1-6 2-6v-7l-4-3v-2l4 2 4 1 6-3z" fill="#684E4C"/>
<path transform="translate(990,396)" d="m0 0 12 1 7 3 7 10 8 12 4 7 7 10-1 2-4-4-2-3v-3h-2l-3-5v-3h-2v-3h-2l-5-8-3-3-2-5-7-2v-2h-2v2l-14 4-6 3-10 4-4 2-7 1v2l-8 7-9 5h-3v2h-3l-1 3h-3v3l-5 1 1 3-13 5-2 2-3-1 6-4 7-9 7-6 16-9h2v-2l12-7 7-6 16-8z" fill="#765B58"/>
<path transform="translate(904,886)" d="m0 0 6 2 24 4 5 1v2l11 1 5 1 58 1-2 2-6 2-1 1h-42l-17-1h-16l-5 1-15-1-1 2-1 8h-1l-2-16z" fill="#8C6763"/>
<path transform="translate(965,1267)" d="m0 0 2 1-1 4 9 1 5 1h10l2 1v-2h7l-1 4-5 4-17 3-8 1h-20l-18-2-10-3 4-2 12-3h5v-2l14-2 9-3z" fill="#99736E"/>
<path transform="translate(1117,1273)" d="m0 0h19l-2 4-5 4-15 3-16 1h-16l-21-2-6-3-3-3v-2l13-1 6 1 13-1 13 1 4-1h9z" fill="#98716C"/>
<path transform="translate(553,614)" d="m0 0 7 2 2 35 2 43v57l-3-1-2-34-2-30v-7l-1-7v-14l-1-17-1-3v-16l1-3h2z" fill="#97706B"/>
<path transform="translate(330,841)" d="m0 0h1l1 9 6 5 2 5 3 2v2l3 1 5 9 6 16 5 10v3h2l3 6 4 6 3 3v2h2l2 5 6 2 5 5 6 2v2l8 1 12 9 5 3 6 5v2l-5-2-7-4-5-1v-2l-3 1-12-6-10-7-7-9v-2h-3l-6-7-3-5-1-3-4-4-4-8-6-16-2-2v-3l-4-2v-2l-3-1-1-3-3-3-2-5-4-1-1-1z" fill="#98716D"/>
<path transform="translate(1117,1213)" d="m0 0h6l3 4 1 17 3 14 7 14v2l-7-2-7-3-2-1v-3h-2l-2-4v-3h-2l-2-11 3-7 1-7 4-7h-9l-5 1h-13v-1z" fill="#D1ACA1"/>
<path transform="translate(782,773)" d="m0 0 2 2 3 8 2 9 5 21 11 42 8 30 3 13 1 4h-2l-6-14-1-1-2-10-3-8-2-9-1-4-4-13-10-40-3-16-1-4z" fill="#C89285"/>
<path transform="translate(263,757)" d="m0 0h6l7 6 9 11 12 16 1 4-5-5-9-11v-3l-4-2-4-5-4 2-7 14 2 6 6 9-1 2h-3l-5-11-7-13-2-3-1-9 4-6z" fill="#694F4D"/>
<path transform="translate(1030,735)" d="m0 0 3 1-4 13-5 13-8 16-9 19-4 6-5 4h-2v2l-2-1 3-9 9-16 10-21 5-13 4-8z" fill="#F5D3C1"/>
<path transform="translate(271,742)" d="m0 0h8l10 5 4 3v2l4 2v2l4 2 11 18 5 11 5 17-2 2v-2h-3l-1-3-2-1-4-11-3-5v-3l-3-1-2-4-7-12-8-11-5-5-8-4z" fill="#98716C"/>
<path transform="translate(385,443)" d="m0 0 4 2 5 5 6 3 3-1 1-2 3-1h10v3h3v2h2l1 7-13 4-5 3-3 5-10 5-5 9-1-3 5-12 7-10 1-5-11-9-3-3z" fill="#DCB4A4"/>
<path transform="translate(1112,1215)" d="m0 0h10l-4 8-2 9-2 6 1 10h2l2 7h2v3l5 1v2l5 1 6 2v1l-11-1-9-5-4-4v-3l-3-1-2-4-2-1-2-10 1-2h-2l3-12v-2l-6-2v-1z" fill="#C19E97"/>
<path transform="translate(330,839)" d="m0 0 4 2 9 9 6 5v2l4 2 8 11 3 10 3 9 5 13 1 4h2l3 7 7 8 11 9 11 8 6 4v2l-5-2-13-10-11-8-6-5-8-10-12-24-4-15-6-11-18-18z" fill="#715855"/>
<path transform="translate(1009,400)" d="m0 0 5 5 4 5 12 17 4 5 7 6h8l4-3 5 1 1 1-1 7-5 4h-2v2l-7 3-4 20-7 11-14 9-8 8 1-4 4-5 8-5 8-6 4-5 3-10 2-12v-6l-6-7-7-11-4-5-6-11-9-12z" fill="#AA8A88"/>
<path transform="translate(900,580)" d="m0 0 2 1 2 7 2 31v53l-2 25-2 21v84l-4 16-1-4 3-14-1-50v-33l4-40v-59l-1-18v-6l-3-12z" fill="#D0AA9F"/>
<path transform="translate(642,1017)" d="m0 0 5 1 5 8v2h2l5 8v4l4 1 2 5h8l2 1v2l3-1 1 1 8 1v1h-27l-3-1v-2l-4-1-5-6-6-12-1-4v-7z" fill="#DCB3A4"/>
<path transform="translate(571,989)" d="m0 0h1v25l-2 55-4 86-3 52-2 37-1 10v21l-2-1-1-6v-11l2-19 1-34 3-35 2-52 2-32 3-79z" fill="#674D4B"/>
<path transform="translate(1208,820)" d="m0 0h10l3 3 1 4v12l-2 4-10 5-8 2-4-1 5-6 4-13z" fill="#745B58"/>
<path transform="translate(696,719)" d="m0 0 6 2 3 14 3 13 5 24 5 29v5l-3-1-3-10-2-12-4-16-2-11-3-9-5-24z" fill="#C89285"/>
<path transform="translate(984,1193)" d="m0 0h8l-2 21v2l-18-1-3-3v-8l4-5 6-4z" fill="#F2C1AB"/>
<path transform="translate(420,472)" d="m0 0 1 4-5 12-4 11-2 7-8 8-2 1-9-1-7-4-2-6v-7h2v2l11 1 8-1h4l9-17z" fill="#A98987"/>
<path transform="translate(1e3 336)" d="m0 0h10l6 1v1l-11 2-5 2-5 3-9 2-11 2-9 2h-10l-3-1-3 2-5-1 4-3 21-7 21-4z" fill="#C4A29A"/>
<path transform="translate(778,287)" d="m0 0 5 1 2 1 7-1 11 26 5 17-1 2-4-2-4-7-2-7-6-8-3-5-5-6-6-7z" fill="#DDB7A7"/>
<path transform="translate(1200,801)" d="m0 0 4 2-4 3v2l-15 5-8 4-17 6-5 2h-6l-1-15 1-1h12l-1 7-1 3 13-5 2-2 4-1 1-2 10-4h2l1-2z" fill="#AD807B"/>
<path transform="translate(280,810)" d="m0 0 3 2 1 3 5 2v116h-1l-1-34-2-13v-13l-1-22 1-6-1-5v-9l1-8-1-6h-6l2-2z" fill="#94706D"/>
<path transform="translate(985,393)" d="m0 0h11l10 3v2l-16-1-9 2-10 5-9 6-5 4-7 4h-2v2l-21 12-9 10-5 5-5 3-11 2 4-2v-2l9-2 3-3h2l1-4 7-9 9-6 14-7 8-5 5-3 5-5 10-6z" fill="#B1908C"/>
<path transform="translate(1028,392)" d="m0 0h6l5 5 4 6 7 10 3 4-1 3-7-9-2-4-4-1-4-2-5 1-1 2h-2v2h-6l-5-5v-2l-4-2-1-2h8z" fill="#DDB5A5"/>
<path transform="translate(979,1192)" d="m0 0h13v1l-10 2-6 3-6 6v10l11 2v1h-10l-10-1-2-5-2-14 2-2z" fill="#CFA99E"/>
<path transform="translate(933,1065)" d="m0 0h1l7 43 3 17 6 36 6 33 3 16v6l-2-3-5-24-6-30-2-21-1-5v-7h-2l-3-18-4-21-1-9z" fill="#85635F"/>
<path transform="translate(228,796)" d="m0 0 5 1 3 10-10 2-7 5-7 8-3 1-1 3 1-9 5-10 8-8z" fill="#755B58"/>
<path transform="translate(377,925)" d="m0 0 6 1 4 5 3 2 5 1v2l8 1 12 9 5 3 6 5v2l-5-2-7-4-5-1v-2l-3 1-12-6-10-7-7-9z" fill="#956F6A"/>
<path transform="translate(1200,807)" d="m0 0m-3 1 3 1-8 4-15 6-18 6-3 2v9l3 7 5 5 9 4 11 2v1h-13l-6-3-6-4-4-6-2-8v-6h-3v27h-2v-43h1l1 15h3v-2l31-12 10-4z" fill="#C0968D"/>
<path transform="translate(561,1177)" d="m0 0h1v16l-1 16-1 29-2 19v13l2 5 2 1v2l5 2 5 3-3 1-9-5-4-5-1-7v-10l2-22 1-32 2-25z" fill="#735A57"/>
<path transform="translate(573,936)" d="m0 0h2l-2 52-2 1v17h-2l-1-4 1-22v-21l-1-5v-10l4-4z" fill="#725956"/>
<path transform="translate(1178,624)" d="m0 0 3 3 3 6 4 18-1 6-4 4h-3v-12l2-8-3-3-5-2v-6z" fill="#F4D3C2"/>
<path transform="translate(885,569)" d="m0 0h2l2 5v4l5-2h4v-2l9-3h3v-2l6 2v2l-8 4h-2v2l-6 1-1 3-9 2-5 2z" fill="#3C2823"/>
<path transform="translate(1148,776)" d="m0 0h2l4 10 4 14 2 4h7l-3 2-14 3-2 1z" fill="#CFA99E"/>
<path transform="translate(882,578)" d="m0 0h1v11l9-3-4 6-3 9-3 19-3 8h-2v-22l4-12z" fill="#97706B"/>
<path transform="translate(992,810)" d="m0 0h2v2h-2l-1 6-5 11-1 3-8 6-5 3-3 3-1-5 4-4 4-6h2l2-7h2l2-4 4-5z" fill="#F5D3C1"/>
<path transform="translate(1150,828)" d="m0 0h3l3 14 5 7 7 4-1 3-17-1z" fill="#584340"/>
<path transform="translate(900,580)" d="m0 0 2 1 2 7 2 31v53l-1 5h-1l-1-59-1-18v-6l-3-12z" fill="#D5AEA1"/>
<path transform="translate(273,801)" d="m0 0 7 7 1 7-5 3-5 2-4 5h-15l-2-4 1-1 14-1v-2l7-4 3-1z" fill="#CCA398"/>
<path transform="translate(531,486)" d="m0 0h5l5 3 1-2 2 7 1 4h2l4 13-1 3-3-7v-5l-5-1-7 1-3-5-2-10z" fill="#6D524F"/>
<path transform="translate(228,807)" d="m0 0h8l-1 4-5 2h-4l-2 5-5 3-4 6h-2l-2 4-2 2-2 4 1-11 1-3 5-5 4-2 2-4z" fill="#694F4D"/>
<path transform="translate(281,744)" d="m0 0 4 1 7 4 1 3 4 2v2l4 2 11 18 5 11 5 17-2 2-4-11-6-13-8-16-9-12-7-6z" fill="#6F5553"/>
<path transform="translate(1137,1170)" d="m0 0 4 2v5l-8 7-10 5-22 3-10-1v-1l24-2 8-2 1-3 5-2 2-6z" fill="#C4A29A"/>
<path transform="translate(299,802)" d="m0 0 4 1v6l-5 6-10 2-5-2v-5l8-4h3v-2z" fill="#3D2824"/>
<path transform="translate(1123,1277)" d="m0 0h2v2l3-1-1 3-13 3-16 1h-16l-7-1v-2l8-1h16l13-1v-2h11z" fill="#906B67"/>
<path transform="translate(1215,820)" d="m0 0 4 1 2 2 1 4v12l-2 4-5 3h-2v-12l2-11z" fill="#8C6864"/>
<path transform="translate(878,475)" d="m0 0h1v37l1 19 3 26v15h-1l-1-13-2-16-3-21v-30z" fill="#9A7773"/>
<path transform="translate(567,853)" d="m0 0 2 4 2 7 2-1 2-4 2 9v28h-2l-3-14-3-17-2-7z" fill="#AC7E75"/>
<path transform="translate(978,1217)" d="m0 0 3 1 3 15h2l2 7 1 3 2 1 4 6 2 1v2l4 1 1 5-7-3-5-5-4-6v-2h-2l-3-8-2-5z" fill="#C19E97"/>
<path transform="translate(998,104)" d="m0 0 9 1 12 5 10 9 13 12 10 11-1 2-9-9-8-7-9-9-14-9-13-4z" fill="#ECDED5"/>
<path transform="translate(1010,501)" d="m0 0 1 2-9 13-7 7-9 7-6 3h-2v2l-10 5-9 6-13 10-4 3-2-1 15-12 13-9 11-6 9-6h2l1-3 8-7 4-5 2-4z" fill="#B3918C"/>
<path transform="translate(1061,358)" d="m0 0 5 2 2 3v13l-5 1-3-3-2-9 1-5z" fill="#F2C1AB"/>
<path transform="translate(743,198)" d="m0 0 4 2 10 14 5 9-1 2-6-5-4-7-5-1-2-2z" fill="#EAD8CE"/>
<path transform="translate(355,863)" d="m0 0 4 4 4 8 4 14 5 13 1 4h2l3 7v3l-7-10-6-12-4-11-3-11z" fill="#674D4B"/>
<path transform="translate(888,789)" d="m0 0h2l2 10v31l-2 2-2-3z" fill="#37231E"/>
<path transform="translate(287,749)" d="m0 0 4 2 8 9 6 9 10 21 5 13-3 1-3-9-5-11-7-12-6-9-5-9z" fill="#8A6561"/>
<path transform="translate(1032,429)" d="m0 0 9 3h4l6-2 5 1 3 4-1 2-5-1-3 1-1 2h-8l-8-7z" fill="#C19E97"/>
<path transform="translate(908,449)" d="m0 0h2l-2 5-5 2v-2l-6 2 1 2h-3l-2 4h-3v2h-3v2l-5 2-1 2 1-5 4-6 11-7z" fill="#7A5E5A"/>
<path transform="translate(966,1238)" d="m0 0 2 3 3 13-1 9-1 2h-2v2l-5 3-12 3h-6l3-2 11-3 3-3 5-4 2-7-2-8z" fill="#694F4D"/>
<path transform="translate(629,1011)" d="m0 0 5 1 4 4 4 9 4 10 3 6v3l-5-2-4-10-3-7-2-8-4-2v-3z" fill="#432E29"/>
<path transform="translate(897,818)" d="m0 0h2l4 25v8l-4 2-2-15z" fill="#F4D3C1"/>
<path transform="translate(946,1152)" d="m0 0h1v5h2l7 37 3 16v6l-2-3-5-24-6-30z" fill="#7D5D5A"/>
<path transform="translate(416,479)" d="m0 0 1 3-9 17-5 1-11 1-8-2v-3h19l7-5z" fill="#C19E97"/>
<path transform="translate(985,393)" d="m0 0h11l10 3v2l-16-1-9 2-10 5-6 4-2-1 8-6 4-2 3-3z" fill="#B99791"/>
<path transform="translate(258,759)" d="m0 0 2 1-2 3 2 1v2h2l2 7-3 9-4-5-2-3-1-9z" fill="#795E5B"/>
<path transform="translate(1150,809)" d="m0 0h11l-1 7-3 4-6 1-1-2z" fill="#98716C"/>
<path transform="translate(950,1272)" d="m0 0h5l-4 2-17 7-1 1h-7l-6-2 4-2 12-3h5v-2z" fill="#8B6763"/>
<path transform="translate(744,1065)" d="m0 0h3v2l5 2 7 1 7-1v3l-9 2h-10l-6-5 1-3z" fill="#D5AD9F"/>
<path transform="translate(228,796)" d="m0 0 5 1 3 10h-2l-1-5h-8l-1 2-2-1v2h-2v2l-3 1-5 6v-3l4-6 8-7z" fill="#8E6A66"/>
<path transform="translate(1208,820)" d="m0 0 3 1-1 15-3 11-1 2-8 1 5-7 4-13z" fill="#745755"/>
<path transform="translate(1083,795)" d="m0 0 2 1-2 8-8 14-3 1-1-4 4-8h2l2-7z" fill="#F5D3C1"/>
<path transform="translate(337,472)" d="m0 0 5 3 5 6 8 5 5 2v2l6 1v2l9 1 5 2-3 1-13-3v-2l-7-1v-2l-5-1-5-3v-2l-4-2-5-5v-2l-2-1z" fill="#B08880"/>
<path transform="translate(835,387)" d="m0 0 3 4 6 15-1 2h-4v-2l-4-2-1-3v-12z" fill="#DEB8A8"/>
<path transform="translate(1041,454)" d="m0 0h2l-1 9-3 12-7 10-13 8-8 8 1-4 4-5 8-5 8-6 4-5 3-10z" fill="#A68481"/>
<path transform="translate(990,396)" d="m0 0 12 1v1l-19 3-5 3h-4v2l-9 2 2-3 16-8z" fill="#8C6763"/>
<path transform="translate(562,463)" d="m0 0h1v9l5 26-2 1-5-16-1-7-1-3h-3v-2l3-1z" fill="#BE8B80"/>
<path transform="translate(1007,400)" d="m0 0h2l7 10 8 12 4 7 7 10-1 2-4-4-2-3v-3h-2l-3-5v-3h-2v-3h-2l-5-8-3-3z" fill="#7D5D5A"/>
<path transform="translate(899,854)" d="m0 0h1l1 5v7l4 1 3 3 1 6-2 1-2 3-1-1-2 2-3-21z" fill="#E2C1B3"/>
<path transform="translate(567,825)" d="m0 0 2 2 7 25 2 5-1 3-2-3-2 1-4-18-1-2z" fill="#AB7E77"/>
<path transform="translate(504,590)" d="m0 0 7 4 1 5-3 4-1 3h-3l-2-11z" fill="#37231E"/>
<path transform="translate(1150,828)" d="m0 0h3l3 14 5 8-4-2-3-4v-3h-2l-1 11h-1z" fill="#775A57"/>
<path transform="translate(982,529)" d="m0 0 2 1-4 3h-2v2l-10 5-9 6-13 10-4 3-2-1 15-12 13-9 11-6z" fill="#A98682"/>
<path transform="translate(1154,836)" d="m0 0h2l3 7 5 5 9 4 11 2v1h-13l-6-3-6-4-4-6z" fill="#B6867C"/>
<path transform="translate(974,398)" d="m0 0 2 1-11 7-6 7-16 8-2-1 11-7 7-4 5-5z" fill="#C19D96"/>
<path transform="translate(1095,382)" d="m0 0 6 5-3 10-4 8-7 9-2-1 9-13 2-4v-7z" fill="#F4D3C1"/>
<path transform="translate(573,936)" d="m0 0h2l-2 50h-1v-33l-1-2z" fill="#674D4B"/>
<path transform="translate(1016,992)" d="m0 0h2l1 7 1 9-2 16h-1l-1-18v-3z" fill="#735A57"/>
<path transform="translate(1019,981)" d="m0 0h2l2 9 1 19-2-2-2-5v-9z" fill="#99736E"/>
<path transform="translate(975,1195)" d="m0 0 4 1-7 5-2 3v10l2 1h-5l-1-5 2-9z" fill="#DDB5A5"/>
<path transform="translate(1035,441)" d="m0 0 7 7-1 10-2 13-2 2 1-11 1-12-4-5z" fill="#7C5D59"/>
<path transform="translate(908,449)" d="m0 0h2l-2 5-5 2v-2l-8 3-5 1 4-4 6-3z" fill="#7E605C"/>
<path transform="translate(278,767)" d="m0 0 5 4 8 11 7 9-1 3-8-10-5-6v-3l-4-2z" fill="#795B58"/>
<path transform="translate(1200,807)" d="m0 0m-3 1 3 1-8 4-15 6-4-1 8-4z" fill="#C89285"/>
<path transform="translate(904,886)" d="m0 0 10 3v2l-7 3-1 10h-1l-1-8z" fill="#735956"/>
<path transform="translate(685,666)" d="m0 0 5 5v17l-2-1z" fill="#C89285"/>
<path transform="translate(385,443)" d="m0 0 4 2 5 5 6 3 3-1 1-2 3-1h10v1l-9 1-5 4-7-1-8-6-3-3z" fill="#B8928A"/>
<path transform="translate(1101,1191)" d="m0 0h10v1l-20 3-7 6h-2l2-5 6-3z" fill="#DDB5A5"/>
<path transform="translate(927,893)" d="m0 0 12 1 6 1 1 3h-11l-7-3z" fill="#795D5A"/>
<path transform="translate(1202,735)" d="m0 0 2 3-1 6-5 2-5 8-2 1 2-5z" fill="#F3D3C2"/>
<path transform="translate(892,799)" d="m0 0h1l1 10 2 4v20l-2-4-2-19z" fill="#9E7470"/>
<path transform="translate(574,859)" d="m0 0 2 3 1 6v28h-2v-27l-2-6z" fill="#906B66"/>
<path transform="translate(682,622)" d="m0 0 2 2 2 11v4l-1 4-2-1-2-12z" fill="#C89285"/>
<path transform="translate(964,842)" d="m0 0 4 1v4l-4 2-1 3h-2v-8z" fill="#F4D3C1"/>
<path transform="translate(966,1238)" d="m0 0 2 3 3 13-1 9-2 2 1-10-3-9z" fill="#7E5F5B"/>
<path transform="translate(391,927)" d="m0 0 4 2 12 9 6 4v2l-5-2-13-10-4-4z" fill="#705653"/>
<path transform="translate(556,1270)" d="m0 0h2l2 5 2 1v2l5 2 5 3-3 1-9-5-4-5z" fill="#6F5653"/>
<path transform="translate(959,1216)" d="m0 0 3 2 4 16-1 4-3-7-3-12z" fill="#7B5D5A"/>
<path transform="translate(799,1053)" d="m0 0 4 1-10 6h-2v2l-8 3 1-3z" fill="#47312D"/>
<path transform="translate(824,952)" d="m0 0h2l4 7v5l-3 1-3-8z" fill="#C89285"/>
<path transform="translate(362,431)" d="m0 0 9 1 4 3h-7l-7 2z" fill="#CEA498"/>
<path transform="translate(845,412)" d="m0 0 2 3 7 11-4-1-7-7v-3h2z" fill="#DFBBAC"/>
<path transform="translate(1203,840)" d="m0 0 1 3-7 8h-3v2l-9 1 4-3 7-3 3-1 2-4z" fill="#CB9F94"/>
<path transform="translate(261,783)" d="m0 0 3 3 9 13-1 2h-3l-5-11-3-5z" fill="#AA827B"/>
<path transform="translate(959,142)" d="m0 0 4 1 2 3-1 5-4-2-2-2z" fill="#FEFEFE"/>
<path transform="translate(281,744)" d="m0 0 4 1 7 4 1 3 4 2v2l4 2-1 2-11-10-8-5z" fill="#6D5351"/>
<path transform="translate(1041,454)" d="m0 0h2l-1 9-3 12-2 2 1-6z" fill="#BA9892"/>
<path transform="translate(426,956)" d="m0 0 5 1 10 7 8 4-2 1-12-6-9-6z" fill="#83625F"/>
<path transform="translate(995,337)" d="m0 0h6l-4 3-18 2v-2z" fill="#D5B4A9"/>
<path transform="translate(1149,809)" d="m0 0h1l1 12 5-1v2l-3 3h-4l-1-15z" fill="#AA8785"/>
<path transform="translate(380,497)" d="m0 0 3 1v7l1 5 4 2-4 1-3-4z" fill="#80615D"/>
<path transform="translate(939,1108)" d="m0 0h2l1 3v15h-1l-3-17z" fill="#7A5C59"/>
<path transform="translate(271,742)" d="m0 0h8l2 1v2l5 2v3l-12-6z" fill="#876460"/>
<path transform="translate(404,512)" d="m0 0v3l-3 2h-7l-6-2v-2l12 1z" fill="#7D5D5A"/>
<path transform="translate(888,789)" d="m0 0h2l2 10v11h-1l-1-10h-2z" fill="#5C4643"/>
<path transform="translate(720,1051)" d="m0 0h11l3 1v4l-14-4z" fill="#38241F"/>
<path transform="translate(884,581)" d="m0 0h1l1 5 9-3-3 3-5 3h-4v-7z" fill="#56413E"/>
<path transform="translate(935,423)" d="m0 0 2 1-14 9-3 2 2-4 10-7z" fill="#CDA79D"/>
<path transform="translate(1083,414)" d="m0 0 2 1-9 8-6 3-3-1 12-7z" fill="#F5D3C1"/>
<path transform="translate(1017,1006)" d="m0 0h3l-2 18h-1l-1-17z" fill="#7A5F5B"/>
<path transform="translate(1208,820)" d="m0 0 3 1-1 11-3 1z" fill="#6B514F"/>
<path transform="translate(315,791)" d="m0 0h3l4 13-2 2-4-11z" fill="#715855"/>
<path transform="translate(1205,758)" d="m0 0 2 1-1 4h-4v3l-4 3-2-1 4-6z" fill="#F4D3C1"/>
<path transform="translate(689,691)" d="m0 0 3 1 2 4v8h-2l-1-5-1-3z" fill="#C89285"/>
<path transform="translate(906,615)" d="m0 0h1l2 10 1 7-2 2-2-10z" fill="#F5D3C1"/>
<path transform="translate(1203,1224)" d="m0 0h1v18l-2-4v-6l-1-6z" fill="#8A6561"/>
<path transform="translate(900,580)" d="m0 0 2 1 1 2v11l-2-2-2-10z" fill="#D0A99D"/>
<path transform="translate(282,1274)" d="m0 0h2l-1 9h-7l4-1v-6z" fill="#775B59"/>
<path transform="translate(572,848)" d="m0 0 2 4h2l2 5-1 3-2-3-2 1z" fill="#956E69"/>
<path transform="translate(236,807)" d="m0 0h2l2 5 4 4-1 2h-3l-4-7z" fill="#BF958B"/>
<path transform="translate(1026,427)" d="m0 0 4 5 5 7-1 2-4-4-2-3v-3h-2z" fill="#7F5F5B"/>
<path transform="translate(651,1042)" d="m0 0 3 1v2l6 1 1 3-7-1-3-3z" fill="#EBC5B4"/>
<path transform="translate(645,1031)" d="m0 0 1 2h2l3 6-2 4-4-8z" fill="#EABBA7"/>
<path transform="translate(1183,717)" d="m0 0 1 3h-2l1 6-2 3-2-1 1-7 1-2h2z" fill="#F5D3C1"/>
<path transform="translate(745,201)" d="m0 0h3l6 9h-3v-2l-4-2z" fill="#F3D3C2"/>
<path transform="translate(1022,489)" d="m0 0 2 1-8 5-4 6-1-3 5-6z" fill="#B5928C"/>
<path transform="translate(976,398)" d="m0 0m-1 1v3l-9 5h-3l8-6z" fill="#AA8A88"/>
</svg>
